<svg xmlns="http://www.w3.org/2000/svg" xmlns:xlink="http://www.w3.org/1999/xlink" width="750" zoomAndPan="magnify" viewBox="0 0 562.5 562.499982" height="750" preserveAspectRatio="xMidYMid meet" version="1.0"><path fill="#f8f8f8" d="M 379.105469 29.453125 C 352.855469 17.601562 302.605469 0.0585938 240.105469 7.109375 C 159.917969 16.15625 126.417969 37.976562 89.148438 80.066406 C 9.128906 170.441406 -0.0117188 277.835938 2.453125 394.394531 C 4.226562 478.164062 31.777344 546.304688 105.765625 552.015625 C 250.648438 563.1875 273.804688 491.882812 354.542969 467.097656 C 428.023438 444.542969 458.964844 454.191406 491.625 433.101562 C 562.488281 387.351562 561.335938 267.773438 527.359375 176.90625 C 514.3125 142.003906 475.152344 72.820312 379.105469 29.453125 " fill-opacity="1" fill-rule="nonzero"/><path fill="#4fb424" d="M 55.246094 108.175781 C 47.808594 108.367188 41.703125 102.355469 41.613281 94.738281 C 41.519531 87.125 47.476562 80.800781 54.914062 80.609375 C 62.355469 80.417969 68.457031 86.429688 68.550781 94.042969 C 68.640625 101.65625 62.683594 107.984375 55.246094 108.175781 Z M 82.179688 96.371094 L 82.117188 91.015625 L 76.523438 89.871094 C 76.292969 88.636719 75.964844 87.441406 75.542969 86.292969 L 79.691406 82.222656 L 77.019531 77.652344 L 71.582031 79.53125 C 70.785156 78.601562 69.914062 77.742188 68.976562 76.960938 L 70.605469 71.335938 L 66.042969 68.773438 L 62.222656 73.164062 C 61.085938 72.78125 59.902344 72.488281 58.6875 72.296875 L 57.363281 66.625 L 52.128906 66.761719 L 50.941406 72.496094 C 49.734375 72.75 48.558594 73.101562 47.429688 73.546875 L 43.507812 69.359375 L 39.007812 72.152344 L 40.773438 77.691406 C 39.855469 78.519531 39.003906 79.421875 38.230469 80.394531 L 32.753906 78.796875 L 30.191406 83.503906 L 34.433594 87.355469 C 34.039062 88.523438 33.742188 89.738281 33.539062 90.984375 L 27.980469 92.414062 L 28.046875 97.769531 L 33.636719 98.910156 C 33.867188 100.144531 34.195312 101.34375 34.617188 102.492188 L 30.472656 106.5625 L 33.144531 111.132812 L 38.578125 109.25 C 39.375 110.183594 40.246094 111.042969 41.1875 111.820312 L 39.554688 117.449219 L 44.117188 120.011719 L 47.9375 115.617188 C 49.074219 116.003906 50.257812 116.296875 51.472656 116.484375 L 52.796875 122.15625 L 58.03125 122.019531 L 59.21875 116.285156 C 60.429688 116.035156 61.601562 115.683594 62.730469 115.234375 L 66.652344 119.425781 L 71.152344 116.632812 L 69.386719 111.09375 C 70.304688 110.261719 71.15625 109.359375 71.929688 108.386719 L 77.40625 109.988281 L 79.96875 105.28125 L 75.726562 101.429688 C 76.121094 100.261719 76.417969 99.042969 76.621094 97.800781 L 82.179688 96.371094 " fill-opacity="1" fill-rule="nonzero"/><path fill="#4fb424" d="M 115.148438 77.214844 C 105.273438 79.988281 95.078125 74.019531 92.375 63.878906 C 89.671875 53.738281 95.484375 43.265625 105.359375 40.488281 C 115.230469 37.714844 125.429688 43.683594 128.132812 53.824219 C 130.835938 63.964844 125.023438 74.4375 115.148438 77.214844 Z M 147.132812 52.316406 L 145.230469 45.179688 L 137.375 45.550781 C 136.648438 43.980469 135.804688 42.488281 134.851562 41.097656 L 139.011719 34.253906 L 133.890625 29.054688 L 127.261719 33.40625 C 125.882812 32.433594 124.425781 31.582031 122.910156 30.859375 L 123.179688 22.785156 L 116.214844 20.910156 L 112.601562 28.070312 C 110.949219 27.9375 109.273438 27.949219 107.585938 28.109375 L 103.890625 20.976562 L 96.945312 22.929688 L 97.300781 31 C 95.773438 31.746094 94.320312 32.613281 92.964844 33.59375 L 86.300781 29.320312 L 81.238281 34.578125 L 85.476562 41.386719 C 84.53125 42.800781 83.699219 44.292969 82.992188 45.855469 L 75.132812 45.574219 L 73.308594 52.726562 L 80.28125 56.441406 C 80.152344 58.136719 80.164062 59.859375 80.316406 61.589844 L 73.375 65.386719 L 75.277344 72.523438 L 83.132812 72.152344 C 83.859375 73.722656 84.703125 75.214844 85.660156 76.605469 L 81.5 83.449219 L 86.617188 88.648438 L 93.246094 84.296875 C 94.625 85.269531 96.082031 86.121094 97.597656 86.84375 L 97.328125 94.917969 L 104.292969 96.792969 L 107.90625 89.632812 C 109.558594 89.765625 111.238281 89.75 112.921875 89.59375 L 116.617188 96.726562 L 123.566406 94.773438 L 123.207031 86.703125 C 124.738281 85.957031 126.1875 85.089844 127.542969 84.109375 L 134.207031 88.378906 L 139.269531 83.125 L 135.03125 76.320312 C 135.976562 74.902344 136.808594 73.40625 137.511719 71.847656 L 145.375 72.125 L 147.199219 64.972656 L 140.226562 61.261719 C 140.355469 59.566406 140.34375 57.84375 140.191406 56.109375 L 147.132812 52.316406 " fill-opacity="1" fill-rule="nonzero"/><path fill="#ffffff" d="M 40.304688 443.347656 L 33.171875 480.898438 L 49.777344 476.917969 L 53.957031 472.523438 C 53.957031 472.523438 48.445312 470.027344 53.339844 457.996094 L 59.394531 445.007812 L 40.304688 443.347656 " fill-opacity="1" fill-rule="nonzero"/><path fill="#000000" d="M 41.113281 444.410156 L 34.433594 479.578125 L 49.261719 476.023438 L 52.472656 472.648438 C 50.898438 471.132812 48.570312 467.078125 52.417969 457.621094 L 57.894531 445.871094 Z M 33.171875 481.886719 C 32.917969 481.886719 32.671875 481.792969 32.484375 481.617188 C 32.242188 481.382812 32.132812 481.042969 32.195312 480.714844 L 39.332031 443.160156 C 39.425781 442.664062 39.878906 442.3125 40.390625 442.359375 L 59.480469 444.019531 C 59.800781 444.046875 60.089844 444.230469 60.253906 444.511719 C 60.414062 444.789062 60.429688 445.132812 60.292969 445.425781 L 54.238281 458.414062 C 49.839844 469.222656 54.335938 471.605469 54.378906 471.628906 C 54.664062 471.765625 54.871094 472.035156 54.925781 472.347656 C 54.980469 472.65625 54.894531 472.980469 54.675781 473.207031 L 50.5 477.601562 C 50.367188 477.738281 50.195312 477.835938 50.011719 477.882812 L 33.402344 481.863281 C 33.324219 481.878906 33.246094 481.886719 33.171875 481.886719 " fill-opacity="1" fill-rule="nonzero"/><path fill="#4fb424" d="M 31.976562 468.558594 C 30.699219 471.632812 28.433594 477.367188 26.996094 482.65625 C 26.089844 485.980469 28.21875 488.753906 31.027344 490.71875 C 36.757812 494.722656 43.558594 497.003906 51.34375 499.089844 C 58.148438 500.910156 65.675781 502.714844 74.320312 503.652344 C 76.667969 503.90625 81.683594 503.652344 84.242188 501.097656 C 91.976562 493.390625 71.691406 484.054688 53.976562 471.425781 C 53.28125 470.929688 52.363281 470.878906 51.621094 471.300781 L 48.964844 472.8125 C 46.304688 474.328125 43.003906 474.097656 40.589844 472.226562 L 34.855469 467.785156 C 33.878906 467.03125 32.453125 467.414062 31.976562 468.558594 " fill-opacity="1" fill-rule="nonzero"/><path fill="#000000" d="M 32.894531 468.9375 C 31.664062 471.898438 29.386719 477.648438 27.953125 482.917969 C 27.109375 486.003906 29.46875 488.421875 31.597656 489.902344 C 37.128906 493.769531 43.59375 495.988281 51.601562 498.132812 C 57.992188 499.84375 65.699219 501.71875 74.425781 502.664062 C 76.902344 502.929688 81.378906 502.546875 83.542969 500.394531 C 84.589844 499.347656 85.042969 498.285156 84.921875 497.140625 C 84.449219 492.628906 75.363281 486.738281 65.738281 480.5 C 61.691406 477.875 57.507812 475.160156 53.398438 472.230469 C 53.019531 471.960938 52.511719 471.933594 52.113281 472.164062 L 49.453125 473.675781 C 46.4375 475.394531 42.71875 475.132812 39.980469 473.011719 L 34.246094 468.570312 C 34.03125 468.402344 33.753906 468.34375 33.488281 468.414062 C 33.21875 468.484375 33.003906 468.675781 32.894531 468.9375 Z M 75.863281 504.71875 C 75.234375 504.71875 74.671875 504.683594 74.210938 504.636719 C 65.351562 503.675781 57.550781 501.78125 51.085938 500.050781 C 43.984375 498.148438 36.570312 495.796875 30.460938 491.53125 C 26.714844 488.917969 25.144531 485.671875 26.035156 482.398438 C 27.5 477.019531 29.8125 471.179688 31.0625 468.175781 C 31.410156 467.339844 32.109375 466.726562 32.984375 466.496094 C 33.851562 466.265625 34.753906 466.453125 35.464844 467 L 41.195312 471.441406 C 43.296875 473.070312 46.15625 473.273438 48.472656 471.953125 L 51.128906 470.441406 C 52.199219 469.832031 53.542969 469.898438 54.550781 470.617188 C 58.625 473.519531 62.789062 476.222656 66.820312 478.832031 C 77.71875 485.902344 86.324219 491.480469 86.898438 496.9375 C 87.082031 498.6875 86.421875 500.324219 84.945312 501.800781 C 82.617188 504.117188 78.605469 504.71875 75.863281 504.71875 " fill-opacity="1" fill-rule="nonzero"/><path fill="#ffffff" d="M 27.816406 480.144531 C 27.816406 480.144531 27.066406 482.398438 26.996094 482.65625 C 26.769531 483.488281 26.765625 484.371094 26.886719 485.234375 C 27.285156 488.011719 29.089844 490.390625 31.570312 491.707031 C 32.167969 492.023438 32.972656 492.414062 33.898438 492.847656 C 43.507812 497.359375 53.683594 500.546875 64.128906 502.429688 C 69.429688 503.386719 81.058594 505.109375 84.242188 501.097656 C 85.226562 499.859375 85.160156 497.105469 85.160156 497.105469 C 85.160156 497.105469 83.257812 499.320312 74.921875 498.148438 C 60.832031 496.164062 50.402344 492.148438 37.738281 487.414062 C 35.246094 486.480469 33.40625 485.480469 31.433594 484.214844 C 29.875 483.21875 28.621094 481.8125 27.816406 480.144531 " fill-opacity="1" fill-rule="nonzero"/><path fill="#000000" d="M 28.089844 482.476562 C 28.015625 482.703125 27.964844 482.867188 27.953125 482.917969 C 27.78125 483.542969 27.753906 484.277344 27.871094 485.09375 C 28.214844 487.484375 29.769531 489.628906 32.035156 490.828125 C 32.589844 491.121094 33.355469 491.496094 34.320312 491.953125 C 43.714844 496.363281 53.804688 499.5625 64.308594 501.457031 C 78.300781 503.980469 82.316406 501.929688 83.464844 500.480469 C 83.753906 500.121094 83.933594 499.476562 84.039062 498.824219 C 82.433594 499.382812 79.597656 499.804688 74.78125 499.128906 C 61.039062 497.195312 50.648438 493.308594 38.613281 488.800781 L 37.390625 488.34375 C 35.089844 487.484375 33.207031 486.527344 30.898438 485.046875 C 29.8125 484.355469 28.867188 483.484375 28.089844 482.476562 Z M 75.402344 504.621094 C 72.265625 504.621094 68.445312 504.21875 63.953125 503.410156 C 53.28125 501.484375 43.027344 498.230469 33.476562 493.746094 C 32.484375 493.28125 31.6875 492.886719 31.109375 492.582031 C 28.28125 491.085938 26.335938 488.390625 25.90625 485.375 C 25.75 484.289062 25.792969 483.289062 26.035156 482.398438 C 26.109375 482.128906 26.695312 480.363281 26.875 479.832031 C 27.003906 479.449219 27.351562 479.179688 27.753906 479.15625 C 28.164062 479.132812 28.535156 479.351562 28.710938 479.710938 C 29.433594 481.210938 30.5625 482.476562 31.96875 483.382812 C 34.152344 484.777344 35.925781 485.675781 38.085938 486.484375 L 39.308594 486.941406 C 51.234375 491.40625 61.535156 495.261719 75.058594 497.164062 C 82.507812 498.214844 84.417969 496.441406 84.4375 496.425781 C 84.703125 496.113281 85.117188 496.011719 85.511719 496.152344 C 85.898438 496.289062 86.144531 496.671875 86.152344 497.078125 C 86.160156 497.398438 86.191406 500.238281 85.019531 501.714844 C 83.484375 503.652344 80.261719 504.621094 75.402344 504.621094 " fill-opacity="1" fill-rule="nonzero"/><path fill="#000000" d="M 55.578125 484.785156 C 55.238281 484.785156 54.90625 484.613281 54.722656 484.296875 C 54.441406 483.824219 54.597656 483.21875 55.070312 482.941406 L 63.777344 477.792969 C 64.25 477.515625 64.859375 477.671875 65.136719 478.140625 C 65.414062 478.613281 65.257812 479.21875 64.789062 479.5 L 56.078125 484.648438 C 55.921875 484.742188 55.746094 484.785156 55.578125 484.785156 " fill-opacity="1" fill-rule="nonzero"/><path fill="#000000" d="M 62.167969 487.269531 C 61.835938 487.269531 61.511719 487.097656 61.324219 486.792969 C 61.035156 486.328125 61.179688 485.71875 61.648438 485.433594 L 68.660156 481.105469 C 69.125 480.820312 69.738281 480.957031 70.027344 481.429688 C 70.3125 481.894531 70.167969 482.503906 69.703125 482.792969 L 62.6875 487.117188 C 62.527344 487.21875 62.347656 487.269531 62.167969 487.269531 " fill-opacity="1" fill-rule="nonzero"/><path fill="#ffffff" d="M 23.828125 429.328125 C 28.398438 424.175781 34.605469 419.898438 41.464844 420.507812 L 54.496094 423.210938 L 50.683594 405.835938 L 24.296875 405.507812 L 23.828125 429.328125 " fill-opacity="1" fill-rule="nonzero"/><path fill="#000000" d="M 25.269531 406.511719 L 24.871094 426.785156 C 30.148438 421.59375 36 419.027344 41.554688 419.519531 C 41.59375 419.523438 41.628906 419.53125 41.667969 419.535156 L 53.195312 421.929688 L 49.882812 406.816406 Z M 23.828125 430.320312 C 23.707031 430.320312 23.585938 430.296875 23.46875 430.25 C 23.078125 430.101562 22.828125 429.726562 22.835938 429.3125 L 23.304688 405.492188 C 23.316406 404.949219 23.757812 404.519531 24.296875 404.519531 C 24.300781 404.519531 24.304688 404.519531 24.308594 404.519531 L 50.695312 404.84375 C 51.15625 404.847656 51.554688 405.171875 51.652344 405.621094 L 55.460938 423 C 55.535156 423.324219 55.4375 423.667969 55.199219 423.90625 C 54.960938 424.148438 54.621094 424.25 54.292969 424.183594 L 41.324219 421.492188 C 33.871094 420.863281 27.628906 426.539062 24.570312 429.984375 C 24.378906 430.203125 24.105469 430.320312 23.828125 430.320312 " fill-opacity="1" fill-rule="nonzero"/><path fill="#4fb424" d="M 25.351562 404.234375 C 22.019531 404.253906 15.855469 404.398438 10.414062 405.136719 C 7 405.59375 4.496094 408.5625 4.554688 411.988281 C 4.722656 421.667969 6.542969 443.417969 10.914062 461.535156 C 11.214844 462.773438 12.460938 464.863281 15.710938 465.015625 C 26.621094 465.539062 26.527344 446.828125 31.269531 425.601562 C 31.457031 424.769531 31.148438 423.90625 30.46875 423.386719 L 28.039062 421.527344 C 25.609375 419.667969 24.535156 416.542969 25.320312 413.589844 L 27.183594 406.582031 C 27.5 405.390625 26.589844 404.226562 25.351562 404.234375 " fill-opacity="1" fill-rule="nonzero"/><path fill="#000000" d="M 25.351562 404.234375 L 25.355469 404.234375 Z M 25.355469 405.226562 C 22.152344 405.246094 15.96875 405.386719 10.546875 406.117188 C 7.648438 406.511719 5.496094 409.023438 5.546875 411.96875 C 5.71875 421.96875 7.550781 443.355469 11.878906 461.300781 C 11.984375 461.730469 12.65625 463.878906 15.757812 464.027344 C 23.226562 464.375 25.046875 454.039062 27.554688 439.722656 C 28.355469 435.128906 29.1875 430.378906 30.300781 425.386719 C 30.402344 424.929688 30.234375 424.453125 29.867188 424.175781 L 27.4375 422.316406 C 24.679688 420.210938 23.472656 416.679688 24.363281 413.335938 L 26.222656 406.328125 C 26.292969 406.0625 26.238281 405.789062 26.070312 405.574219 C 25.898438 405.351562 25.664062 405.234375 25.355469 405.226562 Z M 16.167969 466.023438 C 16 466.023438 15.835938 466.015625 15.664062 466.011719 C 12.164062 465.839844 10.398438 463.617188 9.949219 461.765625 C 5.582031 443.664062 3.738281 422.089844 3.5625 412.007812 C 3.496094 408.054688 6.382812 404.679688 10.28125 404.15625 C 15.8125 403.40625 22.09375 403.261719 25.34375 403.242188 C 25.351562 403.242188 25.355469 403.242188 25.363281 403.242188 C 26.261719 403.242188 27.089844 403.648438 27.636719 404.355469 C 28.1875 405.066406 28.371094 405.96875 28.140625 406.835938 L 26.28125 413.84375 C 25.597656 416.417969 26.523438 419.121094 28.640625 420.742188 L 31.070312 422.597656 C 32.050781 423.347656 32.507812 424.609375 32.238281 425.816406 C 31.132812 430.765625 30.308594 435.492188 29.507812 440.0625 C 26.976562 454.53125 24.964844 466.019531 16.167969 466.023438 " fill-opacity="1" fill-rule="nonzero"/><path fill="#ffffff" d="M 11.234375 405.03125 C 11.234375 405.03125 10.679688 405.097656 10.414062 405.136719 C 7 405.59375 4.496094 408.5625 4.554688 411.988281 C 4.722656 421.667969 6.542969 443.417969 10.914062 461.535156 C 11.214844 462.773438 12.460938 464.863281 15.710938 465.015625 C 16.707031 465.066406 18.433594 464.695312 18.433594 464.695312 L 18.179688 463.398438 C 14.535156 444.980469 12.253906 426.324219 11.355469 407.570312 L 11.234375 405.03125 " fill-opacity="1" fill-rule="nonzero"/><path fill="#000000" d="M 10.292969 406.15625 C 7.523438 406.660156 5.5 409.113281 5.546875 411.96875 C 5.71875 421.96875 7.550781 443.355469 11.878906 461.300781 C 11.984375 461.730469 12.65625 463.878906 15.757812 464.027344 C 16.152344 464.046875 16.746094 463.980469 17.265625 463.898438 L 17.203125 463.59375 C 13.566406 445.1875 11.261719 426.355469 10.363281 407.617188 Z M 15.894531 466.011719 C 15.816406 466.011719 15.738281 466.011719 15.664062 466.011719 C 12.164062 465.839844 10.398438 463.617188 9.949219 461.765625 C 5.582031 443.664062 3.738281 422.089844 3.5625 412.007812 C 3.496094 408.054688 6.382812 404.679688 10.28125 404.15625 C 10.550781 404.117188 11.109375 404.046875 11.109375 404.046875 C 11.382812 404.015625 11.660156 404.09375 11.871094 404.269531 C 12.082031 404.449219 12.210938 404.707031 12.222656 404.984375 L 12.347656 407.523438 C 13.238281 426.160156 15.53125 444.898438 19.152344 463.207031 L 19.410156 464.5 C 19.511719 465.03125 19.171875 465.550781 18.644531 465.664062 C 18.464844 465.703125 16.980469 466.011719 15.894531 466.011719 " fill-opacity="1" fill-rule="nonzero"/><path fill="#000000" d="M 28.628906 438.894531 C 28.425781 438.894531 28.21875 438.828125 28.039062 438.699219 L 19.90625 432.6875 C 19.464844 432.359375 19.371094 431.742188 19.699219 431.296875 C 20.023438 430.859375 20.648438 430.765625 21.085938 431.09375 L 29.21875 437.105469 C 29.660156 437.429688 29.753906 438.050781 29.429688 438.492188 C 29.234375 438.753906 28.933594 438.894531 28.628906 438.894531 " fill-opacity="1" fill-rule="nonzero"/><path fill="#000000" d="M 27.496094 444.6875 C 27.292969 444.6875 27.09375 444.628906 26.917969 444.503906 L 20.203125 439.734375 C 19.753906 439.417969 19.648438 438.796875 19.96875 438.351562 C 20.285156 437.902344 20.90625 437.796875 21.351562 438.117188 L 28.070312 442.886719 C 28.515625 443.203125 28.621094 443.828125 28.304688 444.269531 C 28.109375 444.542969 27.804688 444.6875 27.496094 444.6875 " fill-opacity="1" fill-rule="nonzero"/><path fill="#000000" d="M 124.265625 289.425781 C 124.265625 289.425781 77.285156 279.425781 85.957031 264.828125 C 91.472656 255.546875 122.902344 273.316406 131.960938 278.9375 C 133.507812 279.898438 174.234375 285.765625 174.234375 285.765625 L 158.117188 304.925781 L 124.265625 289.425781 " fill-opacity="1" fill-rule="nonzero"/><path fill="#000000" d="M 171.882812 267.605469 C 171.882812 267.605469 182.15625 335.011719 170.667969 377.769531 C 164.460938 400.875 96.933594 423.945312 43.644531 425.574219 C 40.371094 425.675781 37.625 423.125 37.5 419.855469 L 36.976562 406.441406 C 36.863281 403.546875 38.84375 400.992188 41.683594 400.390625 C 57.101562 397.117188 104.773438 385.894531 125.148438 368.324219 C 149.625 347.214844 108.976562 306.6875 108.976562 306.6875 L 109.589844 260.882812 L 171.882812 267.605469 " fill-opacity="1" fill-rule="nonzero"/><path fill="#000000" d="M 101.027344 248.609375 C 101.027344 248.609375 97.160156 260.175781 94.917969 275.214844 C 92.761719 289.691406 87.722656 303.558594 80.199219 316.113281 C 66.507812 338.957031 47.304688 393.40625 35.40625 454.882812 C 34.785156 458.089844 37.082031 461.132812 40.335938 461.414062 L 50.90625 462.335938 C 53.097656 462.523438 55.191406 461.398438 56.230469 459.464844 C 67.285156 438.910156 128.621094 325.230469 143.742188 304.933594 C 160.378906 282.601562 170.414062 264.882812 170.414062 264.882812 L 101.027344 248.609375 " fill-opacity="1" fill-rule="nonzero"/><path fill="#f8f8f8" d="M 84.679688 409.097656 C 84.507812 409.097656 84.339844 409.054688 84.183594 408.964844 C 83.707031 408.691406 83.546875 408.085938 83.816406 407.609375 L 100.1875 379.140625 C 100.460938 378.664062 101.070312 378.5 101.542969 378.773438 C 102.019531 379.046875 102.183594 379.652344 101.910156 380.125 L 85.539062 408.601562 C 85.355469 408.921875 85.019531 409.097656 84.679688 409.097656 " fill-opacity="1" fill-rule="nonzero"/><path fill="#f8f8f8" d="M 127.699219 333.089844 C 127.535156 333.089844 127.367188 333.046875 127.210938 332.960938 C 126.734375 332.691406 126.566406 332.085938 126.835938 331.609375 L 133.519531 319.777344 C 133.789062 319.300781 134.394531 319.132812 134.871094 319.402344 C 135.347656 319.671875 135.515625 320.273438 135.246094 320.75 L 128.566406 332.582031 C 128.382812 332.90625 128.046875 333.089844 127.699219 333.089844 " fill-opacity="1" fill-rule="nonzero"/><path fill="#f8f8f8" d="M 92.832031 282.171875 C 92.765625 282.171875 92.703125 282.167969 92.636719 282.15625 C 92.097656 282.046875 91.75 281.523438 91.859375 280.984375 L 93.976562 270.351562 C 94.085938 269.816406 94.613281 269.46875 95.144531 269.574219 C 95.679688 269.679688 96.03125 270.203125 95.921875 270.738281 L 93.804688 281.375 C 93.710938 281.847656 93.296875 282.171875 92.832031 282.171875 " fill-opacity="1" fill-rule="nonzero"/><path fill="#ffffff" d="M 189.347656 168.773438 C 189.347656 168.773438 206.25 189.21875 218.121094 192.5 C 229.988281 195.78125 258.222656 186.195312 265.382812 181.15625 C 271.085938 177.144531 275.417969 175.21875 279.8125 175.664062 C 290.871094 176.777344 302.410156 189.144531 299.074219 191.648438 C 295.546875 194.289062 287.277344 190.296875 282.96875 188.523438 C 282.074219 188.15625 282.890625 190.03125 284.023438 191.972656 C 285.355469 194.261719 282.671875 197.164062 280.121094 194.210938 L 276.355469 189.117188 C 275.574219 188.058594 274.054688 187.902344 273.078125 188.777344 L 272.464844 189.332031 C 252.289062 209.660156 219.683594 230.714844 194.5625 215.46875 C 166.441406 198.40625 171.164062 191.484375 171.164062 191.484375 L 189.347656 168.773438 " fill-opacity="1" fill-rule="nonzero"/><path fill="#000000" d="M 171.980469 192.058594 C 171.847656 192.355469 169.289062 198.972656 195.078125 214.621094 C 218.496094 228.832031 250.042969 210.511719 271.761719 188.632812 L 272.410156 188.042969 C 273.089844 187.433594 273.988281 187.140625 274.894531 187.234375 C 275.792969 187.332031 276.617188 187.800781 277.15625 188.527344 L 280.894531 193.589844 C 281.613281 194.410156 282.355469 194.679688 282.882812 194.300781 C 283.351562 193.96875 283.585938 193.195312 283.167969 192.476562 C 281.210938 189.128906 281.449219 188.394531 281.898438 187.882812 C 282.023438 187.730469 282.523438 187.269531 283.347656 187.609375 C 283.800781 187.792969 284.300781 188.007812 284.832031 188.234375 C 288.929688 189.96875 295.78125 192.878906 298.480469 190.851562 C 298.753906 190.648438 298.679688 190.136719 298.570312 189.746094 C 297.5 185.90625 288.597656 177.546875 279.714844 176.652344 C 275.851562 176.261719 271.871094 177.800781 265.953125 181.96875 C 259.027344 186.84375 230.308594 196.898438 217.855469 193.457031 C 207.152344 190.496094 192.882812 174.445312 189.367188 170.332031 Z M 213.597656 221.703125 C 206.496094 221.703125 199.964844 219.910156 194.046875 216.316406 C 175.75 205.214844 170.882812 198.152344 170.027344 194.1875 C 169.589844 192.171875 170.214844 191.117188 170.34375 190.925781 C 170.359375 190.90625 170.375 190.886719 170.390625 190.867188 L 188.574219 168.152344 C 188.757812 167.917969 189.042969 167.78125 189.339844 167.78125 C 189.652344 167.769531 189.921875 167.910156 190.113281 168.140625 C 190.28125 168.34375 206.953125 188.382812 218.382812 191.542969 C 229.875 194.722656 257.945312 185.179688 264.8125 180.347656 C 271.164062 175.875 275.539062 174.230469 279.917969 174.675781 C 289.132812 175.605469 299.101562 184.265625 300.480469 189.214844 C 301.003906 191.097656 300.199219 192.046875 299.671875 192.441406 C 296.070312 195.136719 288.902344 192.113281 284.125 190.085938 C 284.3125 190.464844 284.558594 190.925781 284.882812 191.476562 C 285.765625 192.992188 285.394531 194.945312 284.039062 195.914062 C 282.96875 196.679688 281.101562 196.867188 279.367188 194.859375 C 279.355469 194.839844 279.339844 194.820312 279.324219 194.800781 L 275.558594 189.703125 C 275.347656 189.421875 275.039062 189.242188 274.691406 189.207031 C 274.335938 189.171875 274 189.28125 273.738281 189.515625 L 273.132812 190.066406 C 266.320312 196.929688 252.351562 209.566406 235.757812 216.652344 C 227.871094 220.019531 220.46875 221.703125 213.597656 221.703125 " fill-opacity="1" fill-rule="nonzero"/><path fill="#4fb424" d="M 138.59375 157.21875 C 138.59375 157.21875 120.453125 166.578125 113.230469 182.320312 C 108.898438 191.757812 109.351562 208.277344 107.640625 217.582031 C 103.070312 242.390625 85.808594 264.878906 85.808594 264.878906 C 85.808594 264.878906 88.851562 261.15625 98.554688 269.171875 C 107.589844 276.640625 116.019531 282.335938 135.457031 283.339844 C 153.035156 284.246094 163.671875 282.894531 169.746094 281.453125 C 173.773438 280.496094 176.464844 276.71875 176.019531 272.605469 C 175.375 266.667969 174.675781 257.398438 175.253906 248.660156 C 176.070312 236.386719 185.503906 213.828125 185.503906 213.828125 C 185.503906 213.828125 210.226562 201.859375 212.695312 186.839844 C 212.695312 186.839844 199.550781 164.28125 177.421875 160.523438 C 154.425781 156.617188 138.59375 157.21875 138.59375 157.21875 " fill-opacity="1" fill-rule="nonzero"/><path fill="#ffffff" d="M 133.546875 220.957031 C 133.546875 220.957031 152.519531 242.390625 177.453125 243.019531 C 190.769531 243.351562 203.222656 240.335938 211.378906 237.726562 C 216.269531 236.160156 220.847656 233.769531 225.019531 230.769531 C 226.519531 229.6875 228.152344 228.746094 229.363281 228.667969 C 231.277344 228.542969 232.488281 229.515625 232.488281 229.515625 L 230.230469 231.957031 C 229.285156 232.980469 229.976562 234.648438 231.378906 234.699219 L 242.636719 235.09375 C 244.394531 235.152344 245.847656 236.644531 245.679688 238.394531 C 245.4375 240.929688 243.742188 246.027344 235.941406 247.441406 C 231.234375 248.296875 221.265625 247.882812 217 247.226562 C 215.792969 247.042969 214.5625 247.339844 213.582031 248.070312 C 207.589844 252.519531 187.617188 265.40625 158.824219 262.164062 C 115.476562 257.289062 102.210938 230.921875 102.210938 230.921875 L 133.546875 220.957031 " fill-opacity="1" fill-rule="nonzero"/><path fill="#000000" d="M 103.6875 231.492188 C 106.683594 236.335938 121.519531 256.972656 158.9375 261.179688 C 186.628906 264.296875 205.964844 252.492188 212.988281 247.273438 C 214.1875 246.382812 215.660156 246.019531 217.152344 246.246094 C 221.375 246.894531 231.269531 247.28125 235.765625 246.464844 C 243.246094 245.105469 244.5 240.300781 244.691406 238.296875 C 244.742188 237.773438 244.570312 237.257812 244.207031 236.839844 C 243.800781 236.378906 243.21875 236.101562 242.605469 236.082031 L 231.34375 235.691406 C 230.304688 235.652344 229.410156 235.035156 229.007812 234.074219 C 228.609375 233.117188 228.800781 232.046875 229.503906 231.28125 L 230.859375 229.816406 C 230.476562 229.699219 229.992188 229.621094 229.425781 229.65625 C 228.949219 229.6875 227.816406 229.976562 225.597656 231.574219 C 221.210938 234.730469 216.527344 237.117188 211.679688 238.671875 C 203.488281 241.292969 190.902344 244.347656 177.429688 244.011719 C 154.453125 243.429688 136.28125 225.296875 133.25 222.09375 Z M 168.054688 263.679688 C 165.054688 263.679688 161.941406 263.511719 158.714844 263.152344 C 136.082031 260.605469 121.707031 252.136719 113.632812 245.476562 C 104.835938 238.226562 101.464844 231.644531 101.324219 231.367188 C 101.195312 231.105469 101.183594 230.800781 101.296875 230.535156 C 101.410156 230.265625 101.632812 230.0625 101.910156 229.976562 L 133.246094 220.011719 C 133.621094 219.894531 134.03125 220.007812 134.289062 220.300781 C 134.476562 220.511719 153.277344 241.417969 177.480469 242.023438 C 190.679688 242.363281 203.03125 239.359375 211.074219 236.78125 C 215.71875 235.292969 220.21875 233 224.4375 229.960938 C 226.460938 228.503906 228.054688 227.757812 229.300781 227.675781 C 231.570312 227.53125 233.046875 228.695312 233.109375 228.746094 C 233.324219 228.917969 233.457031 229.167969 233.476562 229.445312 C 233.5 229.71875 233.402344 229.988281 233.21875 230.1875 L 230.960938 232.628906 C 230.707031 232.902344 230.792969 233.195312 230.839844 233.3125 C 230.886719 233.425781 231.039062 233.695312 231.410156 233.707031 L 242.671875 234.101562 C 243.832031 234.140625 244.933594 234.660156 245.695312 235.53125 C 246.425781 236.363281 246.769531 237.410156 246.667969 238.484375 C 246.484375 240.398438 245.183594 246.769531 236.121094 248.417969 C 231.359375 249.285156 221.300781 248.894531 216.847656 248.207031 C 215.890625 248.0625 214.941406 248.296875 214.175781 248.867188 C 207.777344 253.617188 191.453125 263.679688 168.054688 263.679688 " fill-opacity="1" fill-rule="nonzero"/><path fill="#4fb424" d="M 138.476562 198.316406 C 138.476562 198.316406 129.410156 211.960938 140.804688 220.949219 L 94.484375 234.644531 L 91.371094 214.324219 C 87.554688 187.882812 105.148438 162.769531 131.460938 158.070312 C 134.011719 157.617188 136.582031 157.328125 139.152344 157.210938 L 138.476562 198.316406 " fill-opacity="1" fill-rule="nonzero"/><path fill="#000000" d="M 138.3125 221.945312 C 138.007812 221.945312 137.710938 221.804688 137.515625 221.546875 C 130.59375 212.285156 135.242188 189.441406 135.445312 188.476562 C 135.558594 187.9375 136.082031 187.597656 136.621094 187.703125 C 137.15625 187.816406 137.5 188.339844 137.386719 188.878906 C 137.339844 189.105469 132.714844 211.8125 139.105469 220.355469 C 139.433594 220.796875 139.34375 221.417969 138.90625 221.746094 C 138.726562 221.878906 138.519531 221.945312 138.3125 221.945312 " fill-opacity="1" fill-rule="nonzero"/><path fill="#ffffff" d="M 150.898438 158.179688 L 160.023438 132.445312 L 176.324219 142.019531 L 170.816406 158.273438 C 170.039062 160.636719 170.949219 163.230469 173.039062 164.585938 L 174.925781 165.808594 C 175.894531 166.4375 175.546875 167.9375 174.394531 168.074219 L 165.53125 169.128906 C 157.035156 170.136719 148.441406 168.324219 141.074219 163.96875 C 140.019531 163.34375 140.269531 161.753906 141.46875 161.484375 C 145.128906 160.660156 150.496094 159.28125 150.898438 158.179688 " fill-opacity="1" fill-rule="nonzero"/><path fill="#000000" d="M 150.898438 158.179688 L 150.90625 158.179688 Z M 160.554688 133.910156 L 151.835938 158.511719 C 151.832031 158.511719 151.832031 158.515625 151.832031 158.519531 C 151.601562 159.148438 151.167969 160.320312 141.683594 162.449219 C 141.472656 162.5 141.417969 162.65625 141.40625 162.746094 C 141.390625 162.839844 141.394531 163.007812 141.582031 163.117188 C 148.71875 167.335938 157.183594 169.117188 165.414062 168.140625 L 174.277344 167.089844 C 174.394531 167.078125 174.460938 167.015625 174.488281 166.902344 C 174.515625 166.792969 174.480469 166.703125 174.382812 166.640625 L 172.5 165.417969 C 170.035156 163.820312 168.953125 160.753906 169.871094 157.964844 L 175.125 142.464844 Z M 160.988281 170.386719 C 153.84375 170.386719 146.738281 168.46875 140.570312 164.824219 C 139.734375 164.328125 139.296875 163.394531 139.445312 162.4375 C 139.597656 161.480469 140.304688 160.730469 141.25 160.515625 C 148.46875 158.894531 149.785156 157.957031 149.992188 157.761719 L 159.085938 132.113281 C 159.1875 131.835938 159.402344 131.613281 159.683594 131.511719 C 159.960938 131.410156 160.269531 131.441406 160.523438 131.589844 L 176.824219 141.164062 C 177.230469 141.402344 177.414062 141.894531 177.261719 142.335938 L 171.753906 158.59375 C 171.121094 160.519531 171.871094 162.648438 173.578125 163.753906 L 175.464844 164.976562 C 176.261719 165.496094 176.636719 166.425781 176.421875 167.351562 C 176.207031 168.28125 175.457031 168.949219 174.511719 169.0625 L 165.648438 170.113281 C 164.101562 170.296875 162.542969 170.386719 160.988281 170.386719 " fill-opacity="1" fill-rule="nonzero"/><path fill="#000000" d="M 198.421875 116.40625 C 194.226562 113.9375 197.402344 121.171875 183.789062 108.300781 C 178.367188 103.175781 177.816406 112.253906 176.40625 110.929688 C 171.199219 106.03125 169.75 104.757812 166.371094 104.007812 C 164.136719 103.511719 157.980469 105.269531 157.28125 108.265625 C 155.003906 118.042969 160.027344 117.726562 158.800781 126.648438 C 157.941406 132.910156 158.609375 135.296875 160.347656 137.167969 C 162.105469 139.058594 165.167969 136.984375 167.242188 138.910156 C 169.925781 141.390625 166.554688 146.492188 168.464844 150.308594 C 169.664062 152.710938 173.804688 155.667969 182.742188 155.863281 C 184.191406 155.894531 185.460938 154.882812 185.75 153.457031 C 186.125 151.628906 186.582031 149.316406 186.839844 147.070312 C 188.050781 136.367188 185.882812 132.691406 188.226562 130.960938 C 191.8125 128.304688 197.523438 133.816406 200.128906 131.460938 C 202.835938 129.015625 204.167969 119.789062 198.421875 116.40625 " fill-opacity="1" fill-rule="nonzero"/><path fill="#ffffff" d="M 175.480469 124.132812 L 175.546875 127.078125 C 175.578125 128.460938 175.511719 129.847656 175.351562 131.222656 C 175.054688 133.804688 174.710938 138.257812 174.488281 140.761719 C 173.773438 148.804688 185.703125 145.6875 185.703125 145.6875 L 187.207031 144.144531 L 188.539062 144.265625 C 188.792969 144.289062 189.058594 144.253906 189.292969 144.144531 C 189.878906 143.871094 190.1875 143.269531 190.113281 142.671875 C 189.699219 139.386719 189.035156 132.15625 190.292969 126.617188 C 190.292969 126.617188 184.171875 121.183594 175.480469 124.132812 " fill-opacity="1" fill-rule="nonzero"/><path fill="#000000" d="M 176.488281 124.855469 L 176.539062 127.054688 C 176.570312 128.484375 176.5 129.921875 176.339844 131.335938 C 176.125 133.191406 175.878906 136.078125 175.683594 138.402344 C 175.609375 139.3125 175.539062 140.152344 175.476562 140.847656 C 175.34375 142.34375 175.691406 143.414062 176.539062 144.132812 C 178.597656 145.875 183.246094 145.25 185.1875 144.792969 L 186.496094 143.453125 C 186.703125 143.242188 186.996094 143.132812 187.292969 143.160156 L 188.625 143.277344 C 188.726562 143.285156 188.816406 143.273438 188.871094 143.25 C 189.050781 143.164062 189.152344 142.984375 189.125 142.796875 C 188.675781 139.195312 188.105469 132.480469 189.195312 127.007812 C 187.757812 125.941406 182.976562 122.964844 176.488281 124.855469 Z M 180.964844 147.269531 C 178.949219 147.269531 176.753906 146.910156 175.257812 145.648438 C 173.902344 144.5 173.308594 142.828125 173.5 140.671875 C 173.5625 139.984375 173.628906 139.144531 173.707031 138.234375 C 173.902344 135.898438 174.148438 132.996094 174.367188 131.109375 C 174.519531 129.785156 174.585938 128.4375 174.554688 127.097656 L 174.488281 124.15625 C 174.480469 123.722656 174.753906 123.332031 175.164062 123.195312 C 184.292969 120.09375 190.683594 125.636719 190.953125 125.878906 C 191.222656 126.117188 191.339844 126.484375 191.261719 126.835938 C 190.019531 132.308594 190.730469 139.644531 191.09375 142.546875 C 191.226562 143.59375 190.671875 144.597656 189.714844 145.046875 C 189.339844 145.21875 188.902344 145.292969 188.449219 145.253906 L 187.585938 145.175781 L 186.410156 146.382812 C 186.285156 146.507812 186.128906 146.605469 185.953125 146.648438 C 185.785156 146.695312 183.523438 147.269531 180.964844 147.269531 " fill-opacity="1" fill-rule="nonzero"/><path fill="#ffffff" d="M 173.140625 133.085938 C 173.140625 133.085938 172.992188 126.007812 169.804688 126.753906 C 166.613281 127.5 166.972656 135.285156 173.140625 133.085938 " fill-opacity="1" fill-rule="nonzero"/><path fill="#000000" d="M 184.121094 138.371094 Z M 184.101562 138.34375 C 184.574219 138.625 184.878906 138.582031 185.070312 138.523438 C 185.476562 138.398438 186.292969 137.867188 187.234375 135.714844 C 187.488281 135.132812 187.863281 134.085938 187.515625 133.664062 C 187.199219 133.285156 186.863281 133.207031 186.691406 133.195312 C 186.472656 133.175781 186.34375 133.246094 186.316406 133.269531 C 183.886719 135.445312 183.796875 137.84375 184.101562 138.34375 Z M 184.792969 140.550781 C 184.191406 140.550781 183.578125 140.363281 182.992188 139.988281 C 182.4375 139.644531 182.09375 138.945312 182.015625 138.027344 C 181.878906 136.417969 182.59375 133.9375 184.992188 131.792969 C 185.460938 131.371094 186.136719 131.164062 186.835938 131.214844 C 187.679688 131.277344 188.460938 131.699219 189.042969 132.398438 C 189.839844 133.359375 189.839844 134.703125 189.054688 136.507812 C 188.078125 138.738281 186.96875 140.015625 185.65625 140.421875 C 185.371094 140.507812 185.082031 140.550781 184.792969 140.550781 " fill-opacity="1" fill-rule="nonzero"/><path fill="#000000" d="M 187.164062 133.234375 C 187.050781 133.234375 186.9375 133.214844 186.824219 133.171875 L 172.441406 127.949219 C 171.925781 127.761719 171.660156 127.195312 171.84375 126.679688 C 172.035156 126.164062 172.601562 125.898438 173.117188 126.085938 L 187.503906 131.308594 C 188.015625 131.496094 188.28125 132.066406 188.097656 132.578125 C 187.949219 132.980469 187.570312 133.234375 187.164062 133.234375 " fill-opacity="1" fill-rule="nonzero"/><path fill="#000000" d="M 190.425781 139.929688 C 190.429688 139.929688 190.429688 139.929688 190.429688 139.929688 C 190.429688 139.929688 190.429688 139.929688 190.425781 139.929688 Z M 190.398438 141.914062 C 190.382812 141.914062 190.367188 141.914062 190.351562 141.914062 C 189.804688 141.890625 189.378906 141.429688 189.398438 140.886719 C 189.417969 140.394531 189.789062 140.003906 190.257812 139.941406 C 190.828125 139.648438 192.585938 137.742188 192.472656 135.769531 C 192.457031 135.492188 192.367188 135.382812 192.265625 135.308594 C 191.773438 134.921875 190.546875 135.003906 190.066406 135.097656 C 189.53125 135.207031 189.007812 134.859375 188.898438 134.320312 C 188.792969 133.78125 189.140625 133.261719 189.679688 133.15625 C 189.925781 133.105469 192.140625 132.703125 193.484375 133.742188 C 194.074219 134.199219 194.410156 134.863281 194.457031 135.65625 C 194.601562 138.25 192.824219 140.265625 192.277344 140.824219 C 191.566406 141.550781 190.933594 141.914062 190.398438 141.914062 " fill-opacity="1" fill-rule="nonzero"/><path fill="#4fb424" d="M 472.753906 334.496094 L 316.328125 425.414062 L 160.03125 334.382812 L 318.101562 242.371094 L 472.753906 334.496094 " fill-opacity="1" fill-rule="nonzero"/><path fill="#000000" d="M 162 334.382812 L 316.324219 424.265625 L 470.796875 334.488281 L 318.09375 243.523438 Z M 316.324219 426.402344 C 316.152344 426.402344 315.980469 426.355469 315.828125 426.265625 L 159.53125 335.242188 C 159.226562 335.0625 159.039062 334.734375 159.039062 334.382812 C 159.039062 334.03125 159.226562 333.703125 159.53125 333.523438 L 317.601562 241.515625 C 317.910156 241.335938 318.296875 241.335938 318.609375 241.523438 L 473.261719 333.644531 C 473.566406 333.828125 473.75 334.152344 473.746094 334.503906 C 473.746094 334.855469 473.558594 335.179688 473.253906 335.355469 L 316.824219 426.265625 C 316.671875 426.355469 316.5 426.402344 316.324219 426.402344 " fill-opacity="1" fill-rule="nonzero"/><path fill="#83f851" d="M 316.183594 554.292969 L 316.183594 425.589844 L 472.753906 334.496094 L 472.753906 463.199219 L 316.183594 554.292969 " fill-opacity="1" fill-rule="nonzero"/><path fill="#000000" d="M 317.179688 426.160156 L 317.179688 552.566406 L 471.769531 462.628906 L 471.769531 336.21875 Z M 316.1875 555.285156 C 316.015625 555.285156 315.84375 555.238281 315.691406 555.148438 C 315.386719 554.972656 315.191406 554.648438 315.191406 554.292969 L 315.191406 425.589844 C 315.191406 425.234375 315.382812 424.910156 315.6875 424.734375 L 472.261719 333.640625 C 472.566406 333.460938 472.945312 333.460938 473.253906 333.636719 C 473.5625 333.8125 473.75 334.144531 473.75 334.496094 L 473.75 463.199219 C 473.75 463.550781 473.5625 463.878906 473.257812 464.058594 L 316.683594 555.148438 C 316.53125 555.238281 316.355469 555.285156 316.1875 555.285156 " fill-opacity="1" fill-rule="nonzero"/><path fill="#ffffff" d="M 316.09375 554.09375 L 316.09375 425.394531 L 159.972656 334.515625 L 159.972656 463.21875 L 316.09375 554.09375 " fill-opacity="1" fill-rule="nonzero"/><path fill="#000000" d="M 160.964844 462.648438 L 315.101562 552.371094 L 315.101562 425.964844 L 160.964844 336.242188 Z M 316.09375 555.085938 C 315.921875 555.085938 315.75 555.042969 315.597656 554.953125 L 159.472656 464.074219 C 159.167969 463.894531 158.980469 463.570312 158.980469 463.21875 L 158.980469 334.515625 C 158.980469 334.160156 159.167969 333.832031 159.476562 333.65625 C 159.785156 333.480469 160.164062 333.480469 160.472656 333.660156 L 316.59375 424.535156 C 316.898438 424.714844 317.085938 425.039062 317.085938 425.394531 L 317.085938 554.09375 C 317.085938 554.449219 316.898438 554.777344 316.589844 554.957031 C 316.4375 555.042969 316.265625 555.085938 316.09375 555.085938 " fill-opacity="1" fill-rule="nonzero"/><path fill="#000000" d="M 315.179688 490.671875 C 315.007812 490.671875 314.835938 490.632812 314.679688 490.539062 L 159.511719 400.328125 C 159.035156 400.054688 158.875 399.441406 159.152344 398.96875 C 159.425781 398.5 160.035156 398.335938 160.507812 398.613281 L 315.679688 488.824219 C 316.152344 489.101562 316.3125 489.707031 316.035156 490.179688 C 315.855469 490.496094 315.519531 490.671875 315.179688 490.671875 " fill-opacity="1" fill-rule="nonzero"/><path fill="#000000" d="M 260.527344 521.363281 C 259.976562 521.363281 259.53125 520.921875 259.53125 520.375 L 259.53125 394.089844 C 259.53125 393.539062 259.976562 393.097656 260.527344 393.097656 C 261.074219 393.097656 261.519531 393.539062 261.519531 394.089844 L 261.519531 520.375 C 261.519531 520.921875 261.074219 521.363281 260.527344 521.363281 " fill-opacity="1" fill-rule="nonzero"/><path fill="#000000" d="M 207.601562 490.953125 C 207.054688 490.953125 206.609375 490.507812 206.609375 489.960938 L 206.609375 364.335938 C 206.609375 363.789062 207.054688 363.34375 207.601562 363.34375 C 208.148438 363.34375 208.59375 363.789062 208.59375 364.335938 L 208.59375 489.960938 C 208.59375 490.507812 208.148438 490.953125 207.601562 490.953125 " fill-opacity="1" fill-rule="nonzero"/><path fill="#000000" d="M 317.554688 490.671875 C 317.210938 490.671875 316.882812 490.496094 316.695312 490.179688 C 316.417969 489.707031 316.582031 489.101562 317.054688 488.824219 L 472.121094 398.519531 C 472.597656 398.242188 473.203125 398.402344 473.476562 398.875 C 473.753906 399.351562 473.59375 399.957031 473.121094 400.230469 L 318.050781 490.539062 C 317.894531 490.628906 317.726562 490.671875 317.554688 490.671875 " fill-opacity="1" fill-rule="nonzero"/><path fill="#000000" d="M 372.324219 521.363281 C 371.777344 521.363281 371.332031 520.921875 371.332031 520.375 L 371.332031 394.089844 C 371.332031 393.539062 371.777344 393.097656 372.324219 393.097656 C 372.875 393.097656 373.320312 393.539062 373.320312 394.089844 L 373.320312 520.375 C 373.320312 520.921875 372.875 521.363281 372.324219 521.363281 " fill-opacity="1" fill-rule="nonzero"/><path fill="#000000" d="M 425.25 490.953125 C 424.703125 490.953125 424.257812 490.507812 424.257812 489.960938 L 424.257812 362.242188 C 424.257812 361.695312 424.703125 361.253906 425.25 361.253906 C 425.796875 361.253906 426.242188 361.695312 426.242188 362.242188 L 426.242188 489.960938 C 426.242188 490.507812 425.796875 490.953125 425.25 490.953125 " fill-opacity="1" fill-rule="nonzero"/><path fill="#4fb424" d="M 471.1875 249.328125 L 359.585938 360.867188 L 166.160156 296.28125 L 276.941406 185.566406 L 471.1875 249.328125 " fill-opacity="1" fill-rule="nonzero"/><path fill="#000000" d="M 168 295.851562 L 359.320312 359.730469 L 469.34375 249.761719 L 277.210938 186.699219 Z M 359.585938 361.859375 C 359.480469 361.859375 359.375 361.84375 359.273438 361.804688 L 165.847656 297.222656 C 165.523438 297.117188 165.277344 296.847656 165.199219 296.515625 C 165.117188 296.179688 165.21875 295.828125 165.460938 295.582031 L 276.238281 184.867188 C 276.503906 184.601562 276.898438 184.507812 277.25 184.625 L 471.496094 248.382812 C 471.824219 248.492188 472.074219 248.765625 472.152344 249.101562 C 472.234375 249.433594 472.132812 249.785156 471.890625 250.027344 L 360.292969 361.566406 C 360.097656 361.757812 359.847656 361.859375 359.585938 361.859375 " fill-opacity="1" fill-rule="nonzero"/><path fill="#83f851" d="M 471.25 249.402344 L 471.25 315.738281 L 359.757812 426.707031 L 359.757812 360.75 L 471.25 249.402344 " fill-opacity="1" fill-rule="nonzero"/><path fill="#000000" d="M 360.746094 361.164062 L 360.746094 424.316406 L 470.25 315.328125 L 470.25 251.800781 Z M 359.753906 427.695312 C 359.625 427.695312 359.496094 427.671875 359.375 427.621094 C 359.003906 427.46875 358.765625 427.109375 358.765625 426.707031 L 358.765625 360.75 C 358.765625 360.488281 358.871094 360.238281 359.054688 360.050781 L 470.539062 248.703125 C 470.828125 248.417969 471.253906 248.335938 471.625 248.488281 C 471.996094 248.640625 472.238281 249.003906 472.238281 249.402344 L 472.238281 315.738281 C 472.238281 316 472.128906 316.257812 471.945312 316.441406 L 360.453125 427.410156 C 360.265625 427.597656 360.011719 427.695312 359.753906 427.695312 " fill-opacity="1" fill-rule="nonzero"/><path fill="#ffffff" d="M 359.753906 427.085938 L 165.894531 362.609375 C 166.550781 363.261719 166.066406 296.273438 166.066406 296.273438 L 359.753906 360.75 C 359.753906 360.75 359.753906 427.464844 359.753906 427.085938 " fill-opacity="1" fill-rule="nonzero"/><path fill="#000000" d="M 167.003906 361.933594 L 358.765625 425.710938 L 358.765625 361.464844 L 167.070312 297.652344 C 167.097656 301.972656 167.183594 315.71875 167.21875 329.339844 C 167.242188 338.953125 167.234375 346.625 167.195312 352.140625 C 167.152344 357.769531 167.125 360.53125 167.003906 361.933594 Z M 359.753906 428.078125 C 359.628906 428.078125 359.503906 428.050781 359.386719 428.007812 L 165.582031 363.546875 C 165.4375 363.5 165.304688 363.417969 165.195312 363.308594 C 164.898438 363.015625 164.824219 362.570312 164.992188 362.195312 C 165.378906 359.09375 165.253906 321.320312 165.074219 296.28125 C 165.070312 295.960938 165.222656 295.660156 165.484375 295.46875 C 165.742188 295.28125 166.078125 295.230469 166.378906 295.332031 L 360.070312 359.808594 C 360.476562 359.945312 360.75 360.320312 360.75 360.75 L 360.75 427.085938 C 360.75 427.632812 360.304688 428.078125 359.753906 428.078125 " fill-opacity="1" fill-rule="nonzero"/><path fill="#000000" d="M 296.910156 406.320312 C 296.363281 406.320312 295.917969 405.878906 295.917969 405.328125 L 295.917969 339.871094 C 295.917969 339.324219 296.363281 338.882812 296.910156 338.882812 C 297.457031 338.882812 297.902344 339.324219 297.902344 339.871094 L 297.902344 405.328125 C 297.902344 405.878906 297.457031 406.320312 296.910156 406.320312 " fill-opacity="1" fill-rule="nonzero"/><path fill="#000000" d="M 231.417969 384.503906 C 230.867188 384.503906 230.425781 384.058594 230.425781 383.511719 L 230.425781 318.054688 C 230.425781 317.503906 230.867188 317.0625 231.417969 317.0625 C 231.96875 317.0625 232.410156 317.503906 232.410156 318.054688 L 232.410156 383.511719 C 232.410156 384.058594 231.96875 384.503906 231.417969 384.503906 " fill-opacity="1" fill-rule="nonzero"/><path fill="#000000" d="M 397.46875 389.789062 C 396.917969 389.789062 396.476562 389.34375 396.476562 388.796875 L 396.476562 322.679688 C 396.476562 322.132812 396.917969 321.691406 397.46875 321.691406 C 398.015625 321.691406 398.460938 322.132812 398.460938 322.679688 L 398.460938 388.796875 C 398.460938 389.34375 398.015625 389.789062 397.46875 389.789062 " fill-opacity="1" fill-rule="nonzero"/><path fill="#000000" d="M 435.171875 351.441406 C 434.625 351.441406 434.179688 351 434.179688 350.453125 L 434.179688 284.992188 C 434.179688 284.445312 434.625 284.003906 435.171875 284.003906 C 435.722656 284.003906 436.167969 284.445312 436.167969 284.992188 L 436.167969 350.453125 C 436.167969 351 435.722656 351.441406 435.171875 351.441406 " fill-opacity="1" fill-rule="nonzero"/><path fill="#000000" d="M 395.503906 323.945312 C 395.398438 323.945312 395.296875 323.929688 395.191406 323.894531 L 202.6875 260.34375 C 202.167969 260.171875 201.886719 259.609375 202.058594 259.089844 C 202.230469 258.566406 202.789062 258.285156 203.3125 258.460938 L 395.8125 322.011719 C 396.332031 322.179688 396.617188 322.742188 396.445312 323.265625 C 396.304688 323.679688 395.921875 323.945312 395.503906 323.945312 " fill-opacity="1" fill-rule="nonzero"/><path fill="#000000" d="M 434.691406 286.042969 C 434.589844 286.042969 434.484375 286.023438 434.382812 285.992188 L 241.113281 222.21875 C 240.59375 222.050781 240.3125 221.488281 240.480469 220.96875 C 240.652344 220.449219 241.210938 220.164062 241.734375 220.335938 L 435.003906 284.105469 C 435.523438 284.273438 435.804688 284.839844 435.636719 285.359375 C 435.5 285.777344 435.109375 286.042969 434.691406 286.042969 " fill-opacity="1" fill-rule="nonzero"/><path fill="#000000" d="M 298.164062 340.828125 C 297.902344 340.828125 297.652344 340.730469 297.453125 340.53125 C 297.070312 340.140625 297.070312 339.515625 297.464844 339.128906 L 408.8125 229.105469 C 409.203125 228.722656 409.832031 228.726562 410.214844 229.113281 C 410.601562 229.503906 410.597656 230.136719 410.210938 230.519531 L 298.859375 340.539062 C 298.664062 340.734375 298.414062 340.828125 298.164062 340.828125 " fill-opacity="1" fill-rule="nonzero"/><path fill="#000000" d="M 231.160156 318.714844 C 230.90625 318.714844 230.648438 318.617188 230.457031 318.421875 C 230.070312 318.035156 230.074219 317.40625 230.460938 317.019531 L 341.8125 206.996094 C 342.203125 206.613281 342.832031 206.617188 343.214844 207.007812 C 343.601562 207.394531 343.601562 208.023438 343.207031 208.410156 L 231.859375 318.433594 C 231.664062 318.621094 231.414062 318.714844 231.160156 318.714844 " fill-opacity="1" fill-rule="nonzero"/><path fill="#ffffff" d="M 249.527344 208.164062 C 258.902344 202.429688 265.324219 196.527344 272.464844 189.332031 L 273.078125 188.777344 C 274.054688 187.902344 275.574219 188.058594 276.355469 189.117188 L 280.121094 194.210938 C 282.671875 197.164062 285.355469 194.261719 284.023438 191.972656 C 282.890625 190.03125 282.074219 188.15625 282.96875 188.523438 C 287.277344 190.296875 295.546875 194.289062 299.074219 191.648438 C 302.410156 189.144531 290.871094 176.777344 279.8125 175.664062 C 275.417969 175.21875 271.085938 177.144531 265.382812 181.15625 C 263.652344 182.375 262.839844 183.214844 259.179688 184.722656 L 249.527344 208.164062 " fill-opacity="1" fill-rule="nonzero"/><path fill="#000000" d="M 248.625 209.683594 C 248.296875 209.683594 247.976562 209.523438 247.785156 209.226562 C 247.492188 208.761719 247.632812 208.148438 248.09375 207.855469 C 256.148438 202.761719 264.332031 196.113281 271.761719 188.632812 L 272.410156 188.042969 C 273.089844 187.433594 273.988281 187.140625 274.894531 187.234375 C 275.792969 187.332031 276.617188 187.800781 277.15625 188.527344 L 280.894531 193.589844 C 281.613281 194.410156 282.355469 194.679688 282.882812 194.300781 C 283.351562 193.96875 283.585938 193.195312 283.167969 192.476562 C 281.210938 189.128906 281.449219 188.394531 281.898438 187.882812 C 282.023438 187.730469 282.523438 187.269531 283.347656 187.609375 C 283.800781 187.792969 284.300781 188.007812 284.832031 188.234375 C 288.929688 189.96875 295.78125 192.878906 298.480469 190.851562 C 298.753906 190.648438 298.679688 190.136719 298.570312 189.746094 C 297.5 185.90625 288.597656 177.546875 279.714844 176.648438 C 275.851562 176.265625 271.871094 177.800781 265.953125 181.96875 C 264.289062 183.140625 261.585938 184.527344 258.128906 185.976562 C 257.625 186.1875 257.042969 185.953125 256.832031 185.445312 C 256.621094 184.941406 256.855469 184.363281 257.359375 184.148438 C 260.636719 182.773438 263.285156 181.421875 264.8125 180.347656 C 271.164062 175.875 275.539062 174.230469 279.917969 174.675781 C 289.132812 175.605469 299.101562 184.265625 300.480469 189.214844 C 301.003906 191.097656 300.199219 192.046875 299.671875 192.441406 C 296.070312 195.136719 288.902344 192.113281 284.125 190.085938 C 284.3125 190.464844 284.558594 190.925781 284.882812 191.476562 C 285.765625 192.992188 285.394531 194.945312 284.039062 195.914062 C 282.96875 196.679688 281.101562 196.863281 279.367188 194.859375 C 279.355469 194.839844 279.339844 194.820312 279.324219 194.800781 L 275.558594 189.703125 C 275.347656 189.421875 275.039062 189.242188 274.691406 189.207031 C 274.335938 189.171875 274 189.28125 273.738281 189.515625 L 273.132812 190.066406 C 265.636719 197.617188 257.335938 204.359375 249.15625 209.53125 C 248.992188 209.636719 248.808594 209.683594 248.625 209.683594 " fill-opacity="1" fill-rule="nonzero"/><path fill="#ffffff" d="M 208.375 251.539062 C 210.636719 250.179688 212.386719 248.957031 213.582031 248.070312 C 214.5625 247.339844 215.792969 247.042969 217 247.226562 C 221.265625 247.882812 231.234375 248.296875 235.941406 247.441406 C 243.742188 246.027344 245.4375 240.929688 245.679688 238.394531 C 245.847656 236.644531 244.394531 235.152344 242.636719 235.09375 L 231.378906 234.699219 C 229.976562 234.648438 229.285156 232.980469 230.230469 231.957031 L 232.488281 229.515625 C 232.488281 229.515625 231.277344 228.542969 229.363281 228.667969 C 228.152344 228.746094 226.519531 229.6875 225.019531 230.769531 C 220.847656 233.769531 216.269531 236.160156 211.378906 237.726562 C 209.886719 238.203125 208.246094 238.695312 206.488281 239.179688 L 208.375 251.539062 " fill-opacity="1" fill-rule="nonzero"/><path fill="#000000" d="M 201.25 256.3125 C 200.875 256.3125 200.519531 256.101562 200.351562 255.742188 C 200.117188 255.246094 200.335938 254.65625 200.832031 254.425781 C 206.4375 251.8125 210.535156 249.097656 212.988281 247.273438 C 214.1875 246.382812 215.660156 246.019531 217.152344 246.246094 C 221.375 246.894531 231.269531 247.28125 235.765625 246.464844 C 243.246094 245.105469 244.5 240.300781 244.691406 238.296875 C 244.742188 237.773438 244.570312 237.257812 244.207031 236.839844 C 243.800781 236.378906 243.21875 236.101562 242.605469 236.082031 L 231.34375 235.691406 C 230.304688 235.652344 229.410156 235.035156 229.007812 234.074219 C 228.609375 233.117188 228.800781 232.046875 229.503906 231.28125 L 230.859375 229.816406 C 230.476562 229.699219 229.992188 229.621094 229.425781 229.65625 C 228.949219 229.6875 227.816406 229.976562 225.597656 231.574219 C 221.210938 234.730469 216.527344 237.117188 211.679688 238.671875 C 208.785156 239.597656 205.832031 240.421875 202.890625 241.121094 C 202.359375 241.25 201.820312 240.921875 201.695312 240.390625 C 201.566406 239.859375 201.894531 239.324219 202.429688 239.195312 C 205.320312 238.503906 208.230469 237.695312 211.074219 236.78125 C 215.71875 235.292969 220.21875 233 224.4375 229.960938 C 226.460938 228.503906 228.054688 227.757812 229.300781 227.675781 C 231.570312 227.53125 233.046875 228.695312 233.109375 228.746094 C 233.324219 228.917969 233.457031 229.167969 233.476562 229.445312 C 233.5 229.71875 233.402344 229.988281 233.21875 230.1875 L 230.960938 232.628906 C 230.707031 232.902344 230.792969 233.195312 230.839844 233.3125 C 230.886719 233.425781 231.039062 233.695312 231.410156 233.707031 L 242.671875 234.101562 C 243.832031 234.140625 244.933594 234.660156 245.695312 235.53125 C 246.425781 236.363281 246.769531 237.410156 246.667969 238.484375 C 246.484375 240.398438 245.183594 246.769531 236.121094 248.417969 C 231.359375 249.285156 221.300781 248.894531 216.847656 248.207031 C 215.890625 248.0625 214.941406 248.296875 214.175781 248.867188 C 211.648438 250.742188 207.425781 253.542969 201.667969 256.21875 C 201.535156 256.285156 201.390625 256.3125 201.25 256.3125 " fill-opacity="1" fill-rule="nonzero"/><path fill="#ffffff" d="M 312.871094 113.292969 C 312.851562 103.164062 304.703125 95.160156 294.757812 95.648438 C 285.0625 96.121094 277.503906 104.378906 277.664062 114.316406 C 277.746094 119.105469 279.605469 123.402344 282.65625 126.523438 C 284.996094 128.921875 286.328125 132.164062 286.332031 135.582031 L 286.335938 137.617188 C 286.339844 139.296875 287.667969 140.628906 289.308594 140.59375 L 301.273438 140.34375 C 302.910156 140.308594 304.238281 138.917969 304.234375 137.238281 L 304.230469 135.21875 C 304.226562 131.84375 305.464844 128.539062 307.789062 126.105469 C 310.957031 122.777344 312.875 118.25 312.871094 113.292969 " fill-opacity="1" fill-rule="nonzero"/><path fill="#000000" d="M 295.617188 96.621094 C 295.347656 96.621094 295.078125 96.628906 294.804688 96.640625 C 285.59375 97.089844 278.503906 104.851562 278.652344 114.304688 C 278.726562 118.707031 280.398438 122.804688 283.359375 125.835938 C 285.910156 128.445312 287.3125 131.910156 287.320312 135.585938 L 287.324219 137.617188 C 287.324219 138.175781 287.539062 138.691406 287.925781 139.066406 C 288.289062 139.425781 288.777344 139.621094 289.28125 139.605469 L 301.25 139.355469 C 302.347656 139.332031 303.242188 138.386719 303.238281 137.246094 L 303.234375 135.222656 C 303.230469 131.550781 304.628906 127.980469 307.0625 125.425781 C 310.171875 122.164062 311.878906 117.859375 311.875 113.300781 C 311.867188 108.574219 310.019531 104.21875 306.679688 101.046875 C 303.65625 98.175781 299.753906 96.621094 295.617188 96.621094 Z M 289.242188 141.589844 C 288.226562 141.589844 287.265625 141.199219 286.535156 140.484375 C 285.769531 139.734375 285.34375 138.714844 285.34375 137.621094 L 285.339844 135.589844 C 285.332031 132.433594 284.128906 129.457031 281.941406 127.222656 C 278.621094 123.824219 276.75 119.25 276.671875 114.335938 C 276.5 103.804688 284.421875 95.160156 294.707031 94.660156 C 299.691406 94.414062 304.429688 96.171875 308.042969 99.609375 C 311.785156 103.160156 313.847656 108.023438 313.859375 113.296875 C 313.867188 118.367188 311.964844 123.160156 308.5 126.792969 C 306.414062 128.984375 305.214844 132.054688 305.222656 135.222656 L 305.226562 137.242188 C 305.226562 139.453125 303.460938 141.289062 301.289062 141.339844 L 289.328125 141.589844 C 289.300781 141.589844 289.269531 141.589844 289.242188 141.589844 " fill-opacity="1" fill-rule="nonzero"/><path fill="#ffffff" d="M 295.328125 152.765625 C 291.246094 152.851562 287.929688 149.53125 287.921875 145.347656 L 287.914062 140.429688 L 302.699219 140.121094 L 302.707031 145.039062 C 302.714844 149.21875 299.410156 152.679688 295.328125 152.765625 " fill-opacity="1" fill-rule="nonzero"/><path fill="#000000" d="M 288.90625 141.40625 L 288.914062 145.347656 C 288.917969 147.140625 289.605469 148.796875 290.855469 150.015625 C 292.050781 151.1875 293.621094 151.8125 295.304688 151.777344 C 298.84375 151.703125 301.71875 148.683594 301.710938 145.039062 L 301.707031 141.136719 Z M 295.171875 153.761719 C 293.027344 153.761719 291.007812 152.941406 289.464844 151.433594 C 287.835938 149.839844 286.933594 147.679688 286.929688 145.351562 L 286.917969 139.460938 L 303.691406 139.109375 L 303.699219 145.039062 C 303.703125 149.753906 299.957031 153.664062 295.34375 153.761719 C 295.289062 153.761719 295.226562 153.761719 295.171875 153.761719 " fill-opacity="1" fill-rule="nonzero"/><path fill="#000000" d="M 295.507812 83.605469 C 294.964844 83.605469 294.519531 83.160156 294.515625 82.617188 L 294.457031 64.726562 C 294.457031 64.175781 294.902344 63.730469 295.449219 63.730469 L 295.453125 63.730469 C 296 63.730469 296.445312 64.171875 296.445312 64.71875 L 296.5 82.609375 C 296.5 83.15625 296.058594 83.605469 295.511719 83.605469 C 295.507812 83.605469 295.507812 83.605469 295.507812 83.605469 " fill-opacity="1" fill-rule="nonzero"/><path fill="#000000" d="M 241.472656 119.121094 C 240.921875 119.121094 240.480469 118.675781 240.476562 118.128906 C 240.476562 117.582031 240.917969 117.136719 241.46875 117.136719 L 264.78125 117.074219 C 264.785156 117.074219 264.785156 117.074219 264.785156 117.074219 C 265.332031 117.074219 265.777344 117.515625 265.777344 118.0625 C 265.78125 118.613281 265.335938 119.058594 264.789062 119.058594 L 241.472656 119.121094 " fill-opacity="1" fill-rule="nonzero"/><path fill="#000000" d="M 348.546875 119.578125 C 348.542969 119.578125 348.542969 119.578125 348.539062 119.578125 L 324.574219 119.375 C 324.027344 119.371094 323.589844 118.925781 323.589844 118.378906 C 323.597656 117.824219 324.015625 117.382812 324.59375 117.390625 L 348.554688 117.597656 C 349.101562 117.601562 349.539062 118.050781 349.539062 118.597656 C 349.535156 119.140625 349.09375 119.578125 348.546875 119.578125 " fill-opacity="1" fill-rule="nonzero"/><path fill="#000000" d="M 271.476562 95.460938 C 271.21875 95.460938 270.960938 95.359375 270.769531 95.164062 L 256.40625 80.613281 C 256.019531 80.21875 256.027344 79.59375 256.414062 79.207031 C 256.804688 78.824219 257.429688 78.828125 257.816406 79.21875 L 272.183594 93.769531 C 272.566406 94.164062 272.5625 94.789062 272.171875 95.171875 C 271.980469 95.363281 271.730469 95.460938 271.476562 95.460938 " fill-opacity="1" fill-rule="nonzero"/><path fill="#000000" d="M 318.253906 96.464844 C 318 96.464844 317.746094 96.371094 317.550781 96.171875 C 317.167969 95.789062 317.167969 95.160156 317.554688 94.773438 L 332.835938 79.542969 C 333.222656 79.15625 333.847656 79.15625 334.238281 79.542969 C 334.625 79.933594 334.625 80.558594 334.238281 80.945312 L 318.957031 96.175781 C 318.765625 96.371094 318.507812 96.464844 318.253906 96.464844 " fill-opacity="1" fill-rule="nonzero"/><path fill="#ffffff" d="M 524.074219 198.246094 C 526.9375 211.921875 518.164062 225.328125 504.484375 228.1875 C 490.804688 231.046875 477.390625 222.28125 474.53125 208.605469 C 471.667969 194.933594 480.4375 181.527344 494.117188 178.667969 C 507.800781 175.804688 521.214844 184.574219 524.074219 198.246094 " fill-opacity="1" fill-rule="nonzero"/><path fill="#000000" d="M 499.351562 179.113281 C 497.683594 179.113281 496 179.285156 494.324219 179.632812 C 481.199219 182.378906 472.757812 195.28125 475.503906 208.402344 C 478.25 221.515625 491.164062 229.957031 504.285156 227.210938 C 510.644531 225.886719 516.105469 222.160156 519.65625 216.730469 C 523.210938 211.292969 524.4375 204.800781 523.105469 198.449219 C 521.777344 192.09375 518.050781 186.636719 512.613281 183.085938 C 508.609375 180.46875 504.027344 179.113281 499.351562 179.113281 Z M 499.296875 229.714844 C 487.117188 229.714844 476.15625 221.1875 473.558594 208.808594 C 470.589844 194.621094 479.722656 180.664062 493.917969 177.695312 C 500.792969 176.257812 507.820312 177.582031 513.699219 181.425781 C 519.582031 185.265625 523.609375 191.167969 525.050781 198.042969 C 526.488281 204.917969 525.164062 211.933594 521.316406 217.8125 C 517.472656 223.6875 511.566406 227.71875 504.691406 229.15625 C 502.882812 229.53125 501.078125 229.714844 499.296875 229.714844 " fill-opacity="1" fill-rule="nonzero"/><path fill="#000000" d="M 499.261719 225.28125 C 495.054688 225.28125 490.9375 224.0625 487.339844 221.710938 C 482.453125 218.519531 479.105469 213.613281 477.90625 207.898438 C 475.4375 196.105469 483.03125 184.507812 494.828125 182.039062 C 501.949219 180.546875 509.316406 182.6875 514.546875 187.753906 C 514.9375 188.136719 514.949219 188.765625 514.570312 189.160156 C 514.1875 189.550781 513.554688 189.5625 513.164062 189.179688 C 508.414062 184.570312 501.710938 182.625 495.234375 183.976562 C 484.507812 186.222656 477.601562 196.769531 479.847656 207.492188 C 480.9375 212.6875 483.980469 217.144531 488.425781 220.050781 C 492.867188 222.957031 498.175781 223.957031 503.375 222.871094 C 508.574219 221.785156 513.035156 218.738281 515.941406 214.300781 C 518.851562 209.855469 519.851562 204.550781 518.761719 199.355469 C 518.652344 198.820312 518.992188 198.292969 519.53125 198.183594 C 520.0625 198.074219 520.59375 198.414062 520.703125 198.949219 C 521.898438 204.664062 520.796875 210.5 517.601562 215.386719 C 514.40625 220.273438 509.5 223.617188 503.78125 224.8125 C 502.273438 225.128906 500.765625 225.28125 499.261719 225.28125 " fill-opacity="1" fill-rule="nonzero"/><path fill="#4fb424" d="M 500.246094 215.539062 L 499.664062 212.792969 C 497.710938 213.113281 495.722656 212.980469 494.492188 212.578125 L 494.648438 209.015625 C 496.003906 209.421875 497.839844 209.671875 499.71875 209.285156 C 501.363281 208.9375 502.359375 208.066406 502.117188 206.910156 C 501.886719 205.808594 500.816406 205.308594 498.523438 205.035156 C 495.214844 204.640625 492.800781 203.636719 492.214844 200.835938 C 491.679688 198.292969 493.058594 195.921875 496.027344 194.667969 L 495.449219 191.925781 L 498.285156 191.332031 L 498.816406 193.871094 C 500.769531 193.554688 502.15625 193.6875 503.207031 193.949219 L 503.054688 197.390625 C 502.234375 197.230469 500.765625 196.84375 498.683594 197.28125 C 496.804688 197.671875 496.367188 198.613281 496.535156 199.417969 C 496.734375 200.371094 497.871094 200.765625 500.527344 201.179688 C 504.222656 201.675781 505.941406 202.972656 506.488281 205.570312 C 507.023438 208.148438 505.664062 210.726562 502.460938 211.996094 L 503.074219 214.945312 L 500.246094 215.539062 " fill-opacity="1" fill-rule="nonzero"/><path fill="#ffffff" d="M 436.289062 26.367188 L 471.160156 64.394531 L 521.535156 49.230469 L 436.289062 26.367188 " fill-opacity="1" fill-rule="nonzero"/><path fill="#000000" d="M 439.324219 28.203125 L 471.476562 63.261719 L 517.914062 49.28125 Z M 471.167969 65.382812 C 470.894531 65.382812 470.628906 65.269531 470.4375 65.0625 L 435.5625 27.03125 C 435.261719 26.707031 435.214844 26.222656 435.445312 25.847656 C 435.671875 25.472656 436.125 25.289062 436.550781 25.40625 L 521.800781 48.265625 C 522.222656 48.382812 522.527344 48.769531 522.53125 49.207031 C 522.542969 49.652344 522.253906 50.046875 521.828125 50.175781 L 471.453125 65.339844 C 471.359375 65.367188 471.261719 65.382812 471.167969 65.382812 " fill-opacity="1" fill-rule="nonzero"/><path fill="#83f851" d="M 445.320312 59.046875 L 448.796875 40.007812 L 507.59375 48.703125 L 454.929688 46.691406 L 462.214844 54.640625 L 445.320312 59.046875 " fill-opacity="1" fill-rule="nonzero"/><path fill="#000000" d="M 449.601562 41.128906 L 446.574219 57.695312 L 460.375 54.097656 L 454.199219 47.363281 C 453.925781 47.066406 453.863281 46.636719 454.027344 46.273438 C 454.195312 45.910156 454.535156 45.683594 454.964844 45.699219 L 489.410156 47.015625 Z M 445.320312 60.035156 C 445.070312 60.035156 444.828125 59.945312 444.644531 59.773438 C 444.394531 59.542969 444.28125 59.203125 444.339844 58.867188 L 447.820312 39.832031 C 447.917969 39.300781 448.417969 38.949219 448.941406 39.027344 L 507.738281 47.71875 C 508.261719 47.796875 508.632812 48.269531 508.582031 48.792969 C 508.535156 49.316406 508.070312 49.699219 507.554688 49.691406 L 457.269531 47.773438 L 462.949219 53.972656 C 463.1875 54.230469 463.269531 54.585938 463.171875 54.921875 C 463.070312 55.257812 462.804688 55.515625 462.46875 55.601562 L 445.570312 60.007812 C 445.488281 60.023438 445.402344 60.035156 445.320312 60.035156 " fill-opacity="1" fill-rule="nonzero"/><path fill="#000000" d="M 448.695312 55.628906 C 448.496094 55.628906 448.296875 55.5625 448.128906 55.433594 C 447.726562 55.121094 447.65625 54.542969 447.964844 54.140625 L 454.203125 46.125 C 454.511719 45.722656 455.09375 45.652344 455.492188 45.964844 C 455.898438 46.273438 455.96875 46.855469 455.652344 47.253906 L 449.421875 55.273438 C 449.238281 55.503906 448.964844 55.628906 448.695312 55.628906 " fill-opacity="1" fill-rule="nonzero"/><path fill="#000000" d="M 513.9375 103.644531 C 513.679688 103.644531 513.425781 103.546875 513.234375 103.351562 L 510.300781 100.40625 C 509.917969 100.019531 509.917969 99.390625 510.304688 99.003906 C 510.695312 98.617188 511.320312 98.617188 511.707031 99.007812 L 514.636719 101.957031 C 515.023438 102.34375 515.023438 102.96875 514.632812 103.355469 C 514.441406 103.550781 514.1875 103.644531 513.9375 103.644531 " fill-opacity="1" fill-rule="nonzero"/><path fill="#000000" d="M 524.195312 113.957031 C 523.945312 113.957031 523.6875 113.859375 523.496094 113.664062 L 520.5625 110.714844 C 520.175781 110.332031 520.179688 109.699219 520.570312 109.316406 C 520.957031 108.929688 521.585938 108.929688 521.96875 109.320312 L 524.902344 112.265625 C 525.289062 112.65625 525.285156 113.28125 524.894531 113.667969 C 524.703125 113.859375 524.453125 113.957031 524.195312 113.957031 " fill-opacity="1" fill-rule="nonzero"/><path fill="#000000" d="M 511.007812 113.960938 C 510.75 113.960938 510.5 113.863281 510.304688 113.671875 C 509.917969 113.285156 509.917969 112.660156 510.300781 112.269531 L 513.234375 109.320312 C 513.621094 108.933594 514.246094 108.929688 514.632812 109.316406 C 515.023438 109.703125 515.023438 110.332031 514.636719 110.722656 L 511.707031 113.667969 C 511.511719 113.863281 511.257812 113.960938 511.007812 113.960938 " fill-opacity="1" fill-rule="nonzero"/><path fill="#000000" d="M 521.269531 103.644531 C 521.015625 103.644531 520.761719 103.546875 520.570312 103.355469 C 520.179688 102.96875 520.175781 102.34375 520.5625 101.953125 L 523.496094 99.007812 C 523.878906 98.617188 524.507812 98.617188 524.894531 99.003906 C 525.285156 99.386719 525.289062 100.019531 524.902344 100.402344 L 521.96875 103.351562 C 521.773438 103.542969 521.523438 103.644531 521.269531 103.644531 " fill-opacity="1" fill-rule="nonzero"/><path fill="#000000" d="M 510.847656 474.644531 C 510.59375 474.644531 510.339844 474.546875 510.140625 474.355469 L 507.910156 472.117188 C 507.515625 471.734375 507.515625 471.105469 507.910156 470.714844 C 508.292969 470.328125 508.921875 470.328125 509.3125 470.714844 L 511.546875 472.953125 C 511.933594 473.335938 511.933594 473.964844 511.546875 474.355469 C 511.355469 474.546875 511.101562 474.644531 510.847656 474.644531 " fill-opacity="1" fill-rule="nonzero"/><path fill="#000000" d="M 521.554688 485.347656 C 521.300781 485.347656 521.046875 485.25 520.851562 485.058594 L 518.613281 482.820312 C 518.226562 482.4375 518.226562 481.808594 518.613281 481.417969 C 519.003906 481.035156 519.628906 481.035156 520.019531 481.417969 L 522.253906 483.65625 C 522.640625 484.039062 522.640625 484.667969 522.253906 485.058594 C 522.058594 485.25 521.808594 485.347656 521.554688 485.347656 " fill-opacity="1" fill-rule="nonzero"/><path fill="#000000" d="M 508.609375 485.347656 C 508.355469 485.347656 508.105469 485.25 507.910156 485.058594 C 507.515625 484.667969 507.515625 484.039062 507.910156 483.65625 L 510.140625 481.417969 C 510.53125 481.035156 511.160156 481.035156 511.546875 481.417969 C 511.933594 481.808594 511.933594 482.4375 511.546875 482.820312 L 509.3125 485.058594 C 509.117188 485.25 508.863281 485.347656 508.609375 485.347656 " fill-opacity="1" fill-rule="nonzero"/><path fill="#000000" d="M 519.3125 474.644531 C 519.058594 474.644531 518.808594 474.550781 518.613281 474.355469 C 518.226562 473.964844 518.226562 473.339844 518.613281 472.953125 L 520.851562 470.714844 C 521.238281 470.328125 521.867188 470.328125 522.253906 470.714844 C 522.640625 471.105469 522.640625 471.734375 522.253906 472.117188 L 520.019531 474.355469 C 519.824219 474.550781 519.570312 474.644531 519.3125 474.644531 " fill-opacity="1" fill-rule="nonzero"/><path fill="#000000" d="M 491.304688 500.445312 C 488.691406 500.445312 486.570312 502.566406 486.570312 505.179688 C 486.570312 507.789062 488.691406 509.914062 491.304688 509.914062 C 493.914062 509.914062 496.042969 507.789062 496.042969 505.179688 C 496.042969 502.566406 493.914062 500.445312 491.304688 500.445312 Z M 491.304688 511.898438 C 487.597656 511.898438 484.582031 508.882812 484.582031 505.179688 C 484.582031 501.472656 487.597656 498.457031 491.304688 498.457031 C 495.011719 498.457031 498.027344 501.472656 498.027344 505.179688 C 498.027344 508.882812 495.011719 511.898438 491.304688 511.898438 " fill-opacity="1" fill-rule="nonzero"/><path fill="#000000" d="M 460.558594 520.105469 C 458.933594 520.105469 457.609375 521.429688 457.609375 523.050781 C 457.609375 524.679688 458.933594 526.003906 460.558594 526.003906 C 462.1875 526.003906 463.511719 524.679688 463.511719 523.050781 C 463.511719 521.429688 462.1875 520.105469 460.558594 520.105469 Z M 460.558594 527.984375 C 457.84375 527.984375 455.621094 525.773438 455.621094 523.050781 C 455.621094 520.332031 457.84375 518.121094 460.558594 518.121094 C 463.28125 518.121094 465.496094 520.332031 465.496094 523.050781 C 465.496094 525.773438 463.28125 527.984375 460.558594 527.984375 " fill-opacity="1" fill-rule="nonzero"/><path fill="#000000" d="M 138.433594 521.472656 C 136.804688 521.472656 135.480469 522.792969 135.480469 524.421875 C 135.480469 526.046875 136.804688 527.371094 138.433594 527.371094 C 140.058594 527.371094 141.382812 526.046875 141.382812 524.421875 C 141.382812 522.792969 140.058594 521.472656 138.433594 521.472656 Z M 138.433594 529.355469 C 135.710938 529.355469 133.496094 527.140625 133.496094 524.421875 C 133.496094 521.699219 135.710938 519.488281 138.433594 519.488281 C 141.152344 519.488281 143.367188 521.699219 143.367188 524.421875 C 143.367188 527.140625 141.152344 529.355469 138.433594 529.355469 " fill-opacity="1" fill-rule="nonzero"/><path fill="#000000" d="M 178.648438 34.664062 C 176.550781 34.664062 174.84375 36.367188 174.84375 38.460938 C 174.84375 40.558594 176.550781 42.257812 178.648438 42.257812 C 180.742188 42.257812 182.449219 40.558594 182.449219 38.460938 C 182.449219 36.367188 180.742188 34.664062 178.648438 34.664062 Z M 178.648438 44.246094 C 175.457031 44.246094 172.859375 41.648438 172.859375 38.460938 C 172.859375 35.273438 175.457031 32.679688 178.648438 32.679688 C 181.835938 32.679688 184.433594 35.273438 184.433594 38.460938 C 184.433594 41.648438 181.835938 44.246094 178.648438 44.246094 " fill-opacity="1" fill-rule="nonzero"/><path fill="#000000" d="M 31.121094 387.472656 C 30.726562 387.472656 30.355469 387.238281 30.199219 386.855469 C 2.070312 317.523438 19.09375 228.109375 73.574219 159.0625 C 108.21875 115.148438 156.542969 81.328125 213.320312 61.25 C 278.894531 38.0625 354.84375 32.753906 439.058594 45.472656 C 439.597656 45.554688 439.972656 46.058594 439.890625 46.597656 C 439.808594 47.140625 439.300781 47.515625 438.757812 47.4375 C 225.285156 15.199219 119.308594 104.300781 75.132812 160.289062 C 21.085938 228.789062 4.171875 317.429688 32.039062 386.109375 C 32.246094 386.613281 32 387.195312 31.492188 387.398438 C 31.371094 387.449219 31.246094 387.472656 31.121094 387.472656 " fill-opacity="1" fill-rule="nonzero"/><path fill="#000000" d="M 222.84375 511.390625 C 222.824219 511.390625 222.808594 511.390625 222.796875 511.390625 C 199.996094 510.34375 176.476562 506.515625 152.894531 500.011719 C 121.050781 491.238281 92.027344 473.386719 68.957031 448.386719 C 68.585938 447.988281 68.609375 447.359375 69.011719 446.988281 C 69.414062 446.613281 70.042969 446.640625 70.414062 447.042969 C 93.234375 471.769531 121.9375 489.421875 153.421875 498.101562 C 176.863281 504.5625 200.234375 508.367188 222.886719 509.410156 C 223.433594 509.433594 223.855469 509.898438 223.832031 510.445312 C 223.808594 510.976562 223.371094 511.390625 222.84375 511.390625 " fill-opacity="1" fill-rule="nonzero"/><path fill="#000000" d="M 480.578125 376.1875 C 480.328125 376.1875 480.074219 376.089844 479.882812 375.894531 C 479.492188 375.511719 479.492188 374.882812 479.882812 374.492188 C 505.09375 349.292969 518.980469 315.789062 518.980469 280.148438 C 518.980469 262.625 515.632812 245.589844 509.035156 229.519531 C 508.824219 229.011719 509.066406 228.429688 509.574219 228.226562 C 510.078125 228.015625 510.660156 228.253906 510.867188 228.765625 C 517.566406 245.074219 520.964844 262.363281 520.964844 280.148438 C 520.964844 316.320312 506.871094 350.320312 481.285156 375.894531 C 481.085938 376.089844 480.832031 376.1875 480.578125 376.1875 " fill-opacity="1" fill-rule="nonzero"/><path fill="#000000" d="M 476.273438 181.976562 C 476.035156 181.976562 475.796875 181.886719 475.605469 181.714844 C 472.433594 178.8125 469.085938 176.035156 465.652344 173.453125 C 465.21875 173.125 465.128906 172.503906 465.457031 172.066406 C 465.789062 171.628906 466.414062 171.542969 466.847656 171.867188 C 470.332031 174.484375 473.730469 177.308594 476.945312 180.253906 C 477.351562 180.621094 477.378906 181.25 477.007812 181.652344 C 476.8125 181.867188 476.542969 181.976562 476.273438 181.976562 " fill-opacity="1" fill-rule="nonzero"/><path fill="#000000" d="M 303.359375 174.695312 C 303.0625 174.695312 302.765625 174.558594 302.574219 174.308594 C 302.238281 173.871094 302.320312 173.25 302.753906 172.914062 C 326.632812 154.484375 355.242188 144.746094 385.484375 144.746094 C 393.0625 144.746094 400.664062 145.378906 408.074219 146.621094 C 408.617188 146.710938 408.980469 147.21875 408.890625 147.761719 C 408.800781 148.304688 408.28125 148.664062 407.75 148.574219 C 400.441406 147.347656 392.953125 146.730469 385.484375 146.730469 C 355.679688 146.730469 327.492188 156.328125 303.96875 174.488281 C 303.785156 174.625 303.570312 174.695312 303.359375 174.695312 " fill-opacity="1" fill-rule="nonzero"/></svg>